Coordinates
version=1
nRows=16
nColumns=22
inDegrees=yes

Units are S.I. units (second, meters, Newtons, ...)
If the header above contains a line with 'inDegrees', this indicates whether rotational values are in degrees (yes) or radians (no).

endheader
time	pelvis_tilt	pelvis_list	pelvis_rotation	pelvis_tx	pelvis_ty	pelvis_tz	hip_flexion_r	hip_adduction_r	hip_rotation_r	knee_angle_r	ankle_angle_r	subtalar_angle_r	hip_flexion_l	hip_adduction_l	hip_rotation_l	knee_angle_l	ankle_angle_l	subtalar_angle_l	lumbar_extension	lumbar_bending	lumbar_rotation
      1.73000000	      7.39230815	     -1.20334881	     -4.46612632	      0.36115504	      0.90394820	      0.12712219	    -25.02243172	      2.57824258	      2.38674116	    -26.33155067	     -3.66668122	     12.33392087	     23.29078524	      0.80523099	     -8.47288932	    -31.55810072	      8.48094638	    -17.27650612	     -9.46399832	      0.48968350	      1.80548996
      1.74000000	      7.61292553	     -0.81919636	     -4.46022139	      0.37511101	      0.90563257	      0.12662410	    -24.26343575	      1.94600903	      2.12440564	    -28.81610695	     -6.51094838	     13.24688751	     22.53848603	      1.38128256	     -8.33312262	    -32.30237539	      9.44147734	    -17.96641864	     -9.46817837	      0.02277527	      1.53884310
      1.75000000	      7.84216558	     -0.49188646	     -4.47492861	      0.38864323	      0.90735265	      0.12611873	    -23.27819151	      1.32708089	      1.80936762	    -31.55117772	     -9.04242658	     13.86950103	     21.71291933	      1.87894360	     -8.27347412	    -32.91098663	     10.43828763	    -18.45995063	     -9.54169427	     -0.36837046	      1.25130076
      1.76000000	      8.05631575	     -0.19382459	     -4.54307739	      0.40172880	      0.90904272	      0.12562574	    -22.03933261	      0.68071654	      1.48150612	    -34.51534243	    -11.08725798	     14.32984047	     20.82754106	      2.32773850	     -8.29591158	    -33.34898164	     11.47443318	    -18.85569296	     -9.65299412	     -0.71384237	      0.98784949
      1.77000000	      8.26746871	      0.08204458	     -4.64815263	      0.41435205	      0.91069393	      0.12513466	    -20.58531619	      0.00621547	      1.13045043	    -37.63446664	    -12.58958415	     14.60143104	     19.89001237	      2.73798548	     -8.40028950	    -33.64158002	     12.43073609	    -19.03415188	     -9.81912042	     -1.02339446	      0.72366427
      1.78000000	      8.45277480	      0.33224043	     -4.77051276	      0.42656447	      0.91225881	      0.12461551	    -18.93177244	     -0.67781547	      0.76989079	    -40.81595192	    -13.41689986	     14.95581538	     18.92598649	      3.12655656	     -8.52746837	    -33.79168290	     13.44289129	    -19.38397037	     -9.99933341	     -1.28442190	      0.40900393
      1.79000000	      8.64818958	      0.58440898	     -4.92632226	      0.43839101	      0.91382901	      0.12411429	    -17.14657149	     -1.39796291	      0.42823519	    -43.97259068	    -13.66326493	     15.18588269	     17.90020889	      3.51590617	     -8.70607107	    -33.79924945	     14.29500292	    -19.49760773	    -10.22927545	     -1.54252077	      0.10917918
      1.80000000	      8.81589889	      0.81137334	     -5.05355166	      0.44989044	      0.91534053	      0.12356489	    -15.24390958	     -2.08402569	      0.10049484	    -47.00398779	    -13.32190179	     15.40533613	     16.88103942	      3.89935580	     -8.84508617	    -33.72150974	     15.14092715	    -19.78603616	    -10.45392297	     -1.75334154	     -0.28215107
      1.81000000	      8.98301610	      1.01772905	     -5.16471490	      0.46109650	      0.91690063	      0.12299499	    -13.28253596	     -2.73621903	     -0.19238452	    -49.83647511	    -12.55945950	     15.46270585	     15.81991881	      4.29024651	     -8.90935629	    -33.52193860	     15.90571948	    -20.06084947	    -10.69649907	     -1.93129813	     -0.67201873
      1.82000000	      9.16199609	      1.19241349	     -5.24453303	      0.47205362	      0.91856854	      0.12242149	    -11.31870154	     -3.31429338	     -0.42558725	    -52.39667651	    -11.43110985	     15.39106067	     14.70173347	      4.67588866	     -8.88134472	    -33.20440717	     16.55945559	    -20.20253487	    -10.96243036	     -2.06882752	     -1.07115994
      1.83000000	      9.27980084	      1.33349325	     -5.21939281	      0.48277802	      0.92020265	      0.12170932	     -9.28959067	     -3.82270488	     -0.74285042	    -54.67170795	    -10.17374719	     14.87681638	     13.65629188	      5.04800676	     -8.74359416	    -32.86456729	     17.19260149	    -20.63965961	    -11.16395052	     -2.14408942	     -1.55911784
      1.84000000	      9.41227261	      1.41929048	     -5.13027860	      0.49329128	      0.92200512	      0.12098790	     -7.31868056	     -4.20222433	     -1.01101473	    -56.59248892	     -8.72893114	     14.22020137	     12.55098891	      5.37971784	     -8.48413177	    -32.42128817	     17.70954055	    -20.87896699	    -11.38453541	     -2.15482751	     -2.04606239
      1.85000000	      9.52615388	      1.44636193	     -4.94228463	      0.50360838	      0.92390255	      0.12019816	     -5.38493698	     -4.45307703	     -1.30135073	    -58.15455783	     -7.20710891	     13.33085821	     11.44824453	      5.64625021	     -8.14407091	    -31.93067625	     18.14510645	    -21.06963984	    -11.58339772	     -2.08840812	     -2.58740048
      1.86000000	      9.63510194	      1.40749387	     -4.65967634	      0.51377096	      0.92591365	      0.11935723	     -3.52338980	     -4.57045413	     -1.61969727	    -59.33998389	     -5.66580299	     12.23091084	     10.32421133	      5.82434111	     -7.76511345	    -31.38651602	     18.55288339	    -21.19370638	    -11.76974549	     -1.93945485	     -3.17434095
      1.87000000	      9.73669012	      1.32380148	     -4.29593559	      0.52376013	      0.92801879	      0.11847233	     -1.72807192	     -4.58309785	     -1.95763776	    -60.16611669	     -4.14992908	     11.06666896	      9.17842069	      5.93812952	     -7.32401363	    -30.77384920	     18.87468449	    -21.22812221	    -11.94181958	     -1.73849031	     -3.75092651
      1.88000000	      9.83534739	      1.21194340	     -3.85398777	      0.53363912	      0.93020772	      0.11753035	     -0.01945858	     -4.52739900	     -2.33865403	    -60.62859065	     -2.69188064	      9.97508662	      7.99509000	      5.99538394	     -6.86179056	    -30.07438908	     19.09916902	    -21.17497423	    -12.09313193	     -1.50338056	     -4.33166353
